grf
version=1
nRows=8
nColumns=28
inDegrees=no
endheader
time	ground_force_1_vx	ground_force_1_vy	ground_force_1_vz	ground_force_1_px	ground_force_1_py	ground_force_1_pz	ground_moment_1_mx	ground_moment_1_my	ground_moment_1_mz	ground_force_2_vx	ground_force_2_vy	ground_force_2_vz	ground_force_2_px	ground_force_2_py	ground_force_2_pz	ground_moment_2_mx	ground_moment_2_my	ground_moment_2_mz	ground_force_3_vx	ground_force_3_vy	ground_force_3_vz	ground_force_3_px	ground_force_3_py	ground_force_3_pz	ground_moment_3_mx	ground_moment_3_my	ground_moment_3_mz
      1.32000000	      0.38125878	      0.04409471	      1.18315406	    175.38029679	  -1253.35080041	      2.08488015	      0.03239907	      0.11715545	     64.19487827	      1.38217366	     -4.40729398	      2.76762329	    182.14149338	  -1653.42903336	      0.21007632	      0.06847001	      0.88551837	  -1061.09312126	     32.18448192	    -24.06163707	   -547.06959087	    431.15974149	   -124.79405627	      0.04875142	     -0.59814109	      4.39390073	   2139.56666417
      1.33000000	      0.54673676	      0.40578958	      1.43894916	    202.35021941	  -1312.66266334	      2.17951243	      0.03264077	      0.11802946	     64.67379068	      1.29288014	     -4.40328647	      2.64269753	    140.27618549	  -1657.64221238	      0.20385880	      0.08153416	      1.05447620	  -1263.55079796	     29.37244631	    -15.86850400	   -508.11734668	    429.01854854	   -118.94413375	      0.03613919	     -0.53331644	      3.91770364	   1907.68718279
      1.34000000	      0.52512341	      0.44971461	      1.50516174	    252.59314948	  -1285.82657093	      2.10517911	      0.04403502	      0.15923120	     87.25012285	      1.33266183	     -4.21961455	      2.54044634	    210.49107190	  -1637.09397542	      0.22553782	      0.05793001	      0.74920522	   -897.75269606	     25.54420909	     -9.39291798	   -478.11468998	    427.65217761	   -113.77843748	      0.02514872	     -0.45969448	      3.37688208	   1644.33945443
      1.35000000	      0.32377337	      0.21875513	      1.89963908	    344.66978582	  -1307.23093657	      2.09777105	      0.01220909	      0.04414822	     24.19084708	      1.30677473	     -4.23996144	      2.11723507	     81.28574559	  -1708.95457699	      0.15723036	      0.10124931	      1.30945105	  -1569.08038502	     20.59809528	     -4.69956459	   -455.80047102	    426.82169668	   -108.00592354	      0.01306188	     -0.32734305	      2.40463809	   1170.91482555
      1.36000000	      0.47382672	      0.38955465	      1.03179268	    136.73010362	  -1187.09763337	      1.98347503	      0.11300254	      0.40861864	    223.90101053	      1.20539355	     -4.23077436	      2.45634825	    170.59769648	  -1685.49370522	      0.18257236	      0.07088158	      0.91670704	  -1098.46567749	     15.63592192	     -1.42325748	   -443.20274193	    425.65292352	   -101.99659453	      0.00039414	     -0.19258223	      1.41469500	    688.87179125
      1.37000000	      0.57400025	      0.32939589	      1.75031095	    276.38482802	  -1227.73305235	      1.98715099	      0.04260705	      0.15406766	     84.42078151	      1.54578536	     -4.40373159	      3.17375217	    222.69904554	  -1677.42523002	      0.19266777	      0.05865877	      0.75863021	   -909.04642046	     12.15665172	      0.69901970	   -436.68764290	    424.27528773	    -95.94229825	     -0.01242435	     -0.02672526	      0.19632178	     95.59695391
      1.38000000	      0.58168783	      0.48669726	      1.64349323	    269.96932845	  -1321.08320614	      2.16075262	      0.04069068	      0.14713803	     80.62371789	      1.33119175	     -4.17319995	      2.59692868	    158.75356505	  -1644.65648263	      0.21588814	      0.07672258	      0.99224840	  -1188.98488694	     11.41979466	      2.57012468	   -437.52334751	    423.55214572	    -90.22257398	     -0.02437277	     -0.00564595	      0.04147474	     20.19571542
      1.39000000	      0.38797271	      0.31758258	      1.42186323	    229.81070781	  -1232.44956968	      2.01926452	      0.06506603	      0.23527959	    128.92054845	      1.24084176	     -4.09091230	      2.74875739	    226.00813574	  -1667.72218882	      0.20097881	      0.05525437	      0.71460132	   -856.28777027	     13.13614996	      3.94940747	   -442.60744393	    421.98954135	    -83.90784950	     -0.03777779	      0.00722721	     -0.05309056	    -25.85192437
